<?xml version="1.0" encoding="utf-8"?>
<!-- Generator: Adobe Illustrator 27.3.1, SVG Export Plug-In . SVG Version: 6.00 Build 0)  -->
<svg version="1.1" id="图层_1" xmlns="http://www.w3.org/2000/svg" xmlns:xlink="http://www.w3.org/1999/xlink" x="0px" y="0px"
	 viewBox="0 0 210 36" style="enable-background:new 0 0 210 36;" xml:space="preserve">
<style type="text/css">
	.st0{fill:#5878B4;}
	.st1{fill:#36569B;}
	.st2{fill:#1B3882;}
</style>
<g id="_x33_">
	<g>
		<path class="st0" d="M16.5,22.6l-6.4,3.1l5.3-0.2L16.5,22.6z M12.3,33.6l1.1-2.9l-5.3,0.2L12.3,33.6z M21.6,33.3l6.4-3.1l-5.3,0.2
			L21.6,33.3z M25.8,22.4l-1.1,2.9l5.3-0.2L25.8,22.4z M31.5,26.2l-7.1,0.2l-1.7-1.1l1.5-4L22.2,20L19,21.5l-1.5,3.9l-2.7,1.3
			l-7.1,0.2l-3.2,1.5l2.1,1.4l7.1-0.2l0,0l1.7,1.1l-1.5,4L16,36l3.2-1.5l1.5-3.9l0,0l2.6-1.2l0,0l7.2-0.2l3.2-1.5L31.5,26.2z
			 M20.2,28.7c-1,0.5-2.3,0.5-3,0.1c-0.6-0.4-0.4-1.2,0.6-1.6c1-0.5,2.3-0.5,3-0.1C21.5,27.5,21.2,28.2,20.2,28.7z"/>
	</g>
</g>
<g id="_x32_">
	<g>
		<path class="st1" d="M33.5,19.8l-1.3-6.5l-1.5,1.9L33.5,19.8z M27.5,5.1l-4.2-2.7L26,7L27.5,5.1z M20.7,5.7l1.3,6.5l1.5-1.9
			L20.7,5.7z M26.8,20.4l4.2,2.7l-2.7-4.6L26.8,20.4z M34,22.3l-3.6-6.2l0,0l-0.5-2.7l2-2.6l-0.6-3.2l-2.1-1.4l-2,2.6l-1.7-1.1
			l-3.7-6.3L19.6,0l0.6,3.2l3.7,6.3l0,0l0.5,2.6l0,0l-2,2.6l0.6,3.2l2.1,1.4l1.9-2.5l1.7,1.1l3.7,6.3l2.1,1.4L34,22.3z M27.5,14.6
			c-0.6-0.4-1.3-1.6-1.5-2.6c-0.2-1,0.2-1.5,0.8-1.1c0.6,0.4,1.3,1.6,1.5,2.6C28.5,14.6,28.1,15.1,27.5,14.6z"/>
	</g>
</g>
<g id="_x31_">
	<g>
		<path class="st2" d="M12,2.8L5.6,5.9l3.8,1.7L12,2.8z M1.1,14.4l1.3,6.5l2.6-4.8L1.1,14.4z M9.1,24l6.4-3.1l-3.8-1.7L9.1,24z
			 M20,12.4l-1.3-6.5l-2.6,4.8L20,12.4z M20.4,14.9l-5.1-2.3l0,0l-0.5-2.7l3.5-6.5l-0.6-3.2l-3.2,1.5L11,8.1L8.3,9.4l0,0L3.2,7.1
			L0,8.6l0.6,3.2l5.2,2.3l0.5,2.7v0l-3.5,6.6l0.6,3.2l3.2-1.5l3.5-6.5l2.6-1.2l0,0l5.2,2.4l3.2-1.5L20.4,14.9z M10.9,15.2
			c-1,0.5-1.9,0-2.1-1c-0.2-1,0.4-2.2,1.4-2.7c1-0.5,1.9,0,2.1,1C12.5,13.5,11.9,14.7,10.9,15.2z"/>
	</g>
</g>
<path id="字" class="st2" d="M49.5,26.5c-2.5,0-4.4-0.7-5.7-2c-1.8-1.6-2.6-4-2.6-7.1c0-3.2,0.9-5.5,2.6-7.1c1.3-1.3,3.2-2,5.7-2
	c2.5,0,4.4,0.7,5.7,2c1.7,1.6,2.6,4,2.6,7.1c0,3.1-0.9,5.5-2.6,7.1C53.8,25.8,51.9,26.5,49.5,26.5z M52.9,21.8
	c0.8-1.1,1.3-2.6,1.3-4.5c0-1.9-0.4-3.4-1.3-4.5c-0.8-1.1-2-1.6-3.4-1.6c-1.4,0-2.6,0.5-3.4,1.6c-0.9,1.1-1.3,2.6-1.3,4.5
	c0,1.9,0.4,3.4,1.3,4.5c0.9,1.1,2,1.6,3.4,1.6C50.9,23.4,52,22.9,52.9,21.8z M70.9,14.6c1,1.1,1.5,2.7,1.5,4.9c0,2.2-0.5,4-1.5,5.1
	c-1,1.2-2.3,1.8-3.9,1.8c-1,0-1.9-0.3-2.5-0.8c-0.4-0.3-0.7-0.7-1.1-1.2V31h-3.3V13.2h3.2v1.9c0.4-0.6,0.7-1,1.1-1.3
	c0.7-0.6,1.6-0.9,2.6-0.9C68.6,12.9,69.9,13.5,70.9,14.6z M69,19.6c0-1-0.2-1.9-0.7-2.6c-0.4-0.8-1.2-1.1-2.2-1.1
	c-1.2,0-2,0.6-2.5,1.7c-0.2,0.6-0.4,1.4-0.4,2.3c0,1.5,0.4,2.5,1.2,3.1c0.5,0.4,1,0.5,1.7,0.5c0.9,0,1.6-0.4,2.1-1.1
	C68.8,21.8,69,20.8,69,19.6z M85.8,22.2c-0.1,0.8-0.5,1.5-1.2,2.3c-1.1,1.2-2.6,1.9-4.6,1.9c-1.6,0-3.1-0.5-4.3-1.6
	c-1.2-1-1.9-2.8-1.9-5.1c0-2.2,0.6-3.9,1.7-5.1c1.1-1.2,2.6-1.8,4.4-1.8c1.1,0,2,0.2,2.9,0.6c0.9,0.4,1.6,1,2.1,1.9
	c0.5,0.8,0.8,1.6,1,2.6c0.1,0.6,0.1,1.4,0.1,2.5h-8.7c0,1.3,0.4,2.2,1.2,2.7c0.5,0.3,1,0.5,1.7,0.5c0.7,0,1.2-0.2,1.7-0.6
	c0.2-0.2,0.4-0.5,0.6-0.9H85.8z M82.5,18.3c-0.1-0.9-0.3-1.6-0.8-2c-0.5-0.5-1.1-0.7-1.8-0.7c-0.8,0-1.4,0.2-1.8,0.7
	c-0.4,0.5-0.7,1.1-0.8,2H82.5z M94.3,15.7c-1.1,0-1.9,0.5-2.3,1.4c-0.2,0.5-0.3,1.2-0.3,1.9V26h-3.3V13.2h3.2v1.9
	c0.4-0.7,0.8-1.1,1.2-1.4c0.7-0.5,1.6-0.8,2.6-0.8c1.3,0,2.4,0.3,3.2,1c0.8,0.7,1.3,1.8,1.3,3.4V26h-3.4v-7.8c0-0.7-0.1-1.2-0.3-1.5
	C95.8,16,95.2,15.7,94.3,15.7z M115.4,24.7c-1.3,1.2-2.9,1.8-4.9,1.8c-2.5,0-4.4-0.8-5.9-2.4c-1.4-1.6-2.1-3.8-2.1-6.6
	c0-3,0.8-5.3,2.4-7c1.4-1.4,3.2-2.1,5.4-2.1c2.9,0,5,1,6.4,2.9c0.7,1.1,1.1,2.1,1.2,3.2h-3.6c-0.2-0.8-0.5-1.5-0.9-1.9
	c-0.7-0.8-1.6-1.1-2.9-1.1c-1.3,0-2.3,0.5-3.1,1.6c-0.8,1.1-1.1,2.6-1.1,4.5s0.4,3.4,1.2,4.4c0.8,1,1.8,1.4,3.1,1.4
	c1.3,0,2.2-0.4,2.9-1.2c0.4-0.4,0.7-1.1,0.9-2h3.6C117.5,22,116.7,23.5,115.4,24.7z M130.9,14.8c1.1,1.4,1.6,2.9,1.6,4.8
	c0,1.9-0.5,3.5-1.6,4.8c-1.1,1.3-2.7,2-4.9,2c-2.2,0-3.8-0.7-4.9-2c-1.1-1.3-1.6-2.9-1.6-4.8c0-1.8,0.5-3.4,1.6-4.8
	c1.1-1.4,2.7-2,4.9-2C128.2,12.8,129.9,13.5,130.9,14.8z M126,15.6c-1,0-1.7,0.3-2.3,1c-0.5,0.7-0.8,1.7-0.8,3c0,1.3,0.3,2.3,0.8,3
	c0.5,0.7,1.3,1,2.3,1c1,0,1.7-0.3,2.3-1c0.5-0.7,0.8-1.7,0.8-3c0-1.3-0.3-2.3-0.8-3C127.7,16,127,15.6,126,15.6z M142.1,16.7
	c-0.3-0.6-0.8-0.9-1.7-0.9c-1,0-1.6,0.3-1.9,0.9c-0.2,0.4-0.3,0.9-0.3,1.6V26h-3.4V13.2h3.2v1.9c0.4-0.7,0.8-1.1,1.2-1.4
	c0.6-0.5,1.5-0.8,2.5-0.8c1,0,1.8,0.2,2.4,0.6c0.5,0.4,0.9,0.9,1.1,1.5c0.4-0.8,1-1.3,1.6-1.7c0.7-0.4,1.5-0.5,2.3-0.5
	c0.6,0,1.1,0.1,1.7,0.3c0.5,0.2,1,0.6,1.5,1.1c0.4,0.4,0.6,1,0.7,1.6c0.1,0.4,0.1,1.1,0.1,1.9l0,8.1h-3.4v-8.1
	c0-0.5-0.1-0.9-0.2-1.2c-0.3-0.6-0.8-0.9-1.6-0.9c-0.9,0-1.6,0.4-1.9,1.1c-0.2,0.4-0.3,0.9-0.3,1.5V26h-3.4v-7.6
	C142.4,17.6,142.3,17.1,142.1,16.7z M167,14.6c1,1.1,1.5,2.7,1.5,4.9c0,2.2-0.5,4-1.5,5.1c-1,1.2-2.3,1.8-3.9,1.8
	c-1,0-1.9-0.3-2.5-0.8c-0.4-0.3-0.7-0.7-1.1-1.2V31h-3.3V13.2h3.2v1.9c0.4-0.6,0.7-1,1.1-1.3c0.7-0.6,1.6-0.9,2.6-0.9
	C164.7,12.9,166,13.5,167,14.6z M165.1,19.6c0-1-0.2-1.9-0.7-2.6c-0.4-0.8-1.2-1.1-2.2-1.1c-1.2,0-2,0.6-2.5,1.7
	c-0.2,0.6-0.4,1.4-0.4,2.3c0,1.5,0.4,2.5,1.2,3.1c0.5,0.4,1,0.5,1.7,0.5c0.9,0,1.6-0.4,2.1-1.1C164.9,21.8,165.1,20.8,165.1,19.6z
	 M171.5,14.6c0.9-1.1,2.4-1.7,4.5-1.7c1.4,0,2.6,0.3,3.7,0.8c1.1,0.6,1.6,1.6,1.6,3.1v5.9c0,0.4,0,0.9,0,1.5c0,0.4,0.1,0.7,0.2,0.9
	c0.1,0.2,0.3,0.3,0.5,0.4V26h-3.6c-0.1-0.3-0.2-0.5-0.2-0.7c0-0.2-0.1-0.5-0.1-0.8c-0.5,0.5-1,0.9-1.6,1.3c-0.7,0.4-1.5,0.6-2.4,0.6
	c-1.2,0-2.1-0.3-2.9-1c-0.8-0.7-1.1-1.6-1.1-2.8c0-1.6,0.6-2.7,1.8-3.4c0.7-0.4,1.6-0.7,2.9-0.8l1.1-0.1c0.6-0.1,1.1-0.2,1.3-0.3
	c0.5-0.2,0.7-0.5,0.7-0.9c0-0.5-0.2-0.9-0.6-1.1c-0.4-0.2-0.9-0.3-1.6-0.3c-0.8,0-1.3,0.2-1.7,0.6c-0.2,0.3-0.4,0.7-0.5,1.2h-3.2
	C170.6,16.2,170.9,15.3,171.5,14.6z M173.9,23.6c0.3,0.3,0.7,0.4,1.1,0.4c0.7,0,1.4-0.2,2-0.6c0.6-0.4,0.9-1.2,0.9-2.3v-1.2
	c-0.2,0.1-0.4,0.2-0.6,0.3c-0.2,0.1-0.5,0.2-0.9,0.2l-0.8,0.1c-0.7,0.1-1.2,0.3-1.5,0.5c-0.5,0.3-0.8,0.8-0.8,1.4
	C173.5,22.9,173.6,23.3,173.9,23.6z M193.1,13.8c1,0.6,1.6,1.7,1.7,3.3h-3.3c0-0.4-0.2-0.8-0.4-1c-0.4-0.5-1-0.7-1.9-0.7
	c-0.7,0-1.2,0.1-1.6,0.3c-0.3,0.2-0.5,0.5-0.5,0.8c0,0.4,0.2,0.7,0.5,0.8c0.3,0.2,1.5,0.5,3.5,0.9c1.3,0.3,2.3,0.8,3,1.4
	c0.7,0.6,1,1.4,1,2.4c0,1.3-0.5,2.3-1.4,3.1c-0.9,0.8-2.4,1.2-4.4,1.2c-2,0-3.5-0.4-4.5-1.3c-1-0.9-1.4-1.9-1.4-3.2h3.4
	c0.1,0.6,0.2,1,0.5,1.3c0.4,0.4,1.2,0.7,2.3,0.7c0.7,0,1.2-0.1,1.6-0.3c0.4-0.2,0.6-0.5,0.6-0.9c0-0.4-0.2-0.7-0.5-0.9
	c-0.3-0.2-1.5-0.5-3.5-1c-1.4-0.4-2.5-0.8-3.1-1.3c-0.6-0.5-0.9-1.3-0.9-2.3c0-1.2,0.5-2.2,1.4-3c0.9-0.9,2.2-1.3,3.9-1.3
	C190.8,12.9,192.1,13.2,193.1,13.8z M206.5,13.8c1,0.6,1.6,1.7,1.7,3.3h-3.3c0-0.4-0.2-0.8-0.4-1c-0.4-0.5-1-0.7-1.9-0.7
	c-0.7,0-1.2,0.1-1.6,0.3c-0.3,0.2-0.5,0.5-0.5,0.8c0,0.4,0.2,0.7,0.5,0.8c0.3,0.2,1.5,0.5,3.5,0.9c1.3,0.3,2.3,0.8,3,1.4
	c0.7,0.6,1,1.4,1,2.4c0,1.3-0.5,2.3-1.4,3.1c-0.9,0.8-2.4,1.2-4.4,1.2c-2,0-3.5-0.4-4.5-1.3c-1-0.9-1.4-1.9-1.4-3.2h3.4
	c0.1,0.6,0.2,1,0.5,1.3c0.4,0.4,1.2,0.7,2.3,0.7c0.7,0,1.2-0.1,1.6-0.3c0.4-0.2,0.6-0.5,0.6-0.9c0-0.4-0.2-0.7-0.5-0.9
	c-0.3-0.2-1.5-0.5-3.5-1c-1.4-0.4-2.5-0.8-3.1-1.3c-0.6-0.5-0.9-1.3-0.9-2.3c0-1.2,0.5-2.2,1.4-3c0.9-0.9,2.2-1.3,3.9-1.3
	C204.2,12.9,205.5,13.2,206.5,13.8z"/>
</svg>
