<?xml version="1.0" encoding="UTF-8"?>
<svg id="_图层_2" data-name="图层 2" xmlns="http://www.w3.org/2000/svg" viewBox="0 0 167.39 94.12">
  <defs>
    <style>
      .cls-1 {
        fill: #36569b;
      }

      .cls-2 {
        fill: #1b3882;
      }

      .cls-3 {
        fill: #5878b4;
      }
    </style>
  </defs>
  <g id="_图层_1-2" data-name="图层 1">
    <g>
      <g>
        <g id="_3" data-name="3">
          <path class="cls-3" d="m78.42,37.75l-10.62,5.12,8.78-.27,1.84-4.85Zm-6.98,18.25l1.86-4.85-8.79.29,6.92,4.56Zm15.49-.49l10.62-5.12-8.78.27-1.84,4.85Zm6.98-18.25l-1.86,4.85,8.79-.29-6.92-4.56Zm9.53,6.35l-11.8.38-2.88-1.9,2.5-6.59-3.44-2.26-5.27,2.54-2.46,6.49-4.46,2.15-11.89.39-5.27,2.55,3.44,2.26,11.88-.39h0s2.82,1.85,2.82,1.85l-2.52,6.63,3.44,2.26,5.27-2.55,2.5-6.58h0s4.27-2.06,4.27-2.06h0s12.05-.39,12.05-.39l5.27-2.54-3.44-2.26Zm-18.82,4.26c-1.65.79-3.85.87-4.93.16-1.08-.71-.61-1.92,1.03-2.72,1.64-.8,3.85-.87,4.93-.16,1.08.71.61,1.92-1.03,2.72Z"/>
        </g>
        <g id="_2" data-name="2">
          <path class="cls-1" d="m106.71,33.07l-2.1-10.86-2.43,3.14,4.53,7.72Zm-10.08-24.49l-6.94-4.57,4.52,7.73,2.42-3.16Zm-11.22.97l2.1,10.86,2.43-3.14-4.53-7.72Zm10.08,24.49l6.94,4.57-4.52-7.73-2.42,3.16Zm11.99,3.19l-6.06-10.33h0s-.89-4.56-.89-4.56l3.27-4.27-1.04-5.39-3.44-2.26-3.27,4.27-2.82-1.85-6.19-10.56-3.44-2.26,1.05,5.39,6.14,10.47h0s.85,4.37.85,4.37h0s-3.32,4.33-3.32,4.33l1.04,5.39,3.44,2.26,3.25-4.24,2.88,1.89,6.15,10.48,3.44,2.26-1.05-5.39Zm-10.79-12.83c-1.08-.71-2.21-2.64-2.54-4.33-.33-1.68.28-2.48,1.36-1.77,1.08.71,2.21,2.64,2.54,4.33.33,1.68-.28,2.48-1.36,1.77Z"/>
        </g>
        <g id="_1" data-name="1">
          <path class="cls-2" d="m70.81,4.7l-10.61,5.12,6.36,2.9,4.26-8.01Zm-18.15,19.24l2.1,10.88,4.27-8-6.37-2.88Zm13.32,15.99l10.61-5.12-6.36-2.9-4.26,8.01Zm18.15-19.24l-2.1-10.88-4.27,8,6.37,2.88Zm.74,4.22l-8.55-3.86h0s-.88-4.52-.88-4.52l5.78-10.88-1.05-5.4-5.27,2.55-5.7,10.72-4.46,2.15h0s-8.62-3.89-8.62-3.89l-5.27,2.54,1.05,5.4,8.61,3.89.86,4.42h0s-5.82,10.96-5.82,10.96l1.05,5.4,5.27-2.55,5.77-10.87,4.27-2.06h0s8.74,3.95,8.74,3.95l5.27-2.54-1.05-5.4Zm-15.87.4c-1.64.79-3.24.07-3.57-1.61-.33-1.69.74-3.7,2.39-4.49,1.65-.8,3.24-.07,3.57,1.61.33,1.69-.74,3.7-2.39,4.49Z"/>
        </g>
      </g>
      <path id="_字" data-name="字" class="cls-2" d="m8.29,89.58c-2.47,0-4.36-.67-5.66-2.02-1.75-1.65-2.62-4.02-2.62-7.12s.88-5.54,2.62-7.12c1.3-1.34,3.19-2.02,5.66-2.02s4.36.67,5.66,2.02c1.74,1.59,2.61,3.96,2.61,7.12s-.87,5.48-2.61,7.12c-1.3,1.34-3.19,2.02-5.66,2.02Zm3.41-4.64c.84-1.05,1.25-2.55,1.25-4.5s-.42-3.43-1.27-4.49c-.84-1.06-1.97-1.59-3.4-1.59s-2.57.53-3.42,1.58c-.85,1.05-1.28,2.55-1.28,4.5s.43,3.45,1.28,4.5c.85,1.05,1.99,1.58,3.42,1.58s2.57-.53,3.41-1.58Zm18.06-7.24c1.03,1.1,1.55,2.72,1.55,4.85,0,2.25-.51,3.96-1.52,5.14-1.01,1.18-2.31,1.77-3.9,1.77-1.02,0-1.86-.25-2.53-.76-.37-.28-.73-.69-1.08-1.23v6.66h-3.3v-17.8h3.2v1.89c.36-.55.74-.99,1.15-1.31.74-.57,1.62-.86,2.65-.86,1.49,0,2.76.55,3.8,1.65Zm-1.9,5.02c0-.98-.23-1.86-.68-2.61-.45-.76-1.17-1.14-2.18-1.14-1.21,0-2.04.57-2.5,1.72-.23.61-.35,1.38-.35,2.32,0,1.48.39,2.53,1.18,3.13.47.35,1.02.53,1.66.53.93,0,1.64-.36,2.12-1.08.49-.72.74-1.68.74-2.87Zm16.8,2.64c-.09.76-.48,1.53-1.18,2.31-1.09,1.24-2.62,1.86-4.59,1.86-1.62,0-3.06-.52-4.3-1.57-1.24-1.05-1.86-2.75-1.86-5.11,0-2.21.56-3.91,1.68-5.09,1.12-1.18,2.58-1.77,4.37-1.77,1.06,0,2.02.2,2.87.6.85.4,1.55,1.03,2.11,1.89.5.76.82,1.64.97,2.64.09.59.12,1.43.11,2.53h-8.74c.05,1.28.45,2.18,1.21,2.7.46.32,1.02.48,1.66.48.69,0,1.25-.2,1.68-.59.23-.21.44-.5.62-.88h3.41Zm-3.3-3.91c-.05-.88-.32-1.55-.81-2-.48-.46-1.07-.69-1.78-.69-.77,0-1.38.24-1.8.73-.42.48-.69,1.14-.8,1.97h5.19Zm11.74-2.64c-1.13,0-1.91.48-2.33,1.44-.22.51-.33,1.16-.33,1.95v6.91h-3.33v-12.75h3.22v1.86c.43-.66.84-1.13,1.22-1.42.69-.52,1.56-.77,2.61-.77,1.32,0,2.4.35,3.23,1.04.84.69,1.27,1.83,1.27,3.43v8.6h-3.42v-7.77c0-.67-.09-1.19-.27-1.55-.33-.66-.95-.98-1.88-.98Zm21.12,9.01c-1.29,1.18-2.94,1.77-4.94,1.77-2.48,0-4.44-.8-5.86-2.39-1.42-1.6-2.13-3.8-2.13-6.59,0-3.02.81-5.34,2.43-6.97,1.41-1.42,3.19-2.13,5.37-2.13,2.91,0,5.03.95,6.38,2.86.74,1.07,1.14,2.14,1.19,3.22h-3.61c-.23-.83-.53-1.45-.9-1.88-.66-.75-1.63-1.12-2.92-1.12s-2.35.53-3.11,1.59c-.76,1.05-1.14,2.55-1.14,4.49s.4,3.39,1.2,4.36c.8.96,1.82,1.44,3.06,1.44s2.23-.41,2.9-1.24c.37-.45.67-1.11.91-2h3.57c-.31,1.88-1.11,3.41-2.39,4.59Zm15.54-9.87c1.08,1.35,1.62,2.95,1.62,4.79s-.54,3.48-1.62,4.82c-1.08,1.33-2.71,1.99-4.91,1.99s-3.83-.66-4.91-1.99c-1.08-1.34-1.62-2.94-1.62-4.82s.54-3.44,1.62-4.79c1.08-1.35,2.72-2.03,4.91-2.03s3.83.68,4.91,2.03Zm-4.92.8c-.98,0-1.73.35-2.26,1.04-.52.69-.78,1.67-.78,2.95s.26,2.27.78,2.96c.53.7,1.29,1.04,2.26,1.04s1.73-.35,2.25-1.04c.52-.7.78-1.68.78-2.96s-.26-2.27-.78-2.95c-.52-.7-1.27-1.04-2.25-1.04Zm16.11,1.1c-.28-.62-.83-.93-1.65-.93-.95,0-1.59.31-1.92.93-.18.35-.27.88-.27,1.57v7.69h-3.39v-12.75h3.25v1.86c.41-.66.8-1.14,1.17-1.42.65-.5,1.49-.75,2.52-.75.98,0,1.77.21,2.37.64.49.4.85.91,1.1,1.54.44-.75.98-1.3,1.63-1.65.69-.35,1.45-.53,2.3-.53.56,0,1.12.11,1.67.33.55.22,1.04.6,1.49,1.15.36.45.6.99.73,1.64.08.43.12,1.06.12,1.89l-.02,8.05h-3.42v-8.13c0-.48-.08-.88-.23-1.2-.3-.59-.84-.89-1.64-.89-.92,0-1.56.38-1.91,1.15-.18.41-.27.89-.27,1.46v7.61h-3.36v-7.61c0-.76-.08-1.31-.23-1.65Zm24.88-2.14c1.03,1.1,1.55,2.72,1.55,4.85,0,2.25-.51,3.96-1.52,5.14-1.01,1.18-2.31,1.77-3.9,1.77-1.02,0-1.86-.25-2.53-.76-.37-.28-.73-.69-1.08-1.23v6.66h-3.31v-17.8h3.2v1.89c.36-.55.74-.99,1.15-1.31.74-.57,1.63-.86,2.65-.86,1.49,0,2.76.55,3.8,1.65Zm-1.9,5.02c0-.98-.23-1.86-.68-2.61-.45-.76-1.17-1.14-2.18-1.14-1.21,0-2.04.57-2.5,1.72-.23.61-.35,1.38-.35,2.32,0,1.48.4,2.53,1.18,3.13.47.35,1.02.53,1.66.53.93,0,1.64-.36,2.12-1.08.49-.72.74-1.68.74-2.87Zm6.35-5c.88-1.12,2.4-1.69,4.55-1.69,1.4,0,2.64.28,3.73.83,1.09.55,1.63,1.6,1.63,3.14v5.86c0,.41,0,.9.02,1.48.02.44.09.73.2.89.11.16.27.29.49.39v.49h-3.63c-.1-.26-.17-.5-.21-.73-.04-.23-.07-.48-.09-.77-.46.5-.99.93-1.59,1.28-.72.41-1.53.62-2.44.62-1.16,0-2.11-.33-2.87-.98-.75-.66-1.12-1.6-1.12-2.81,0-1.57.61-2.71,1.82-3.41.66-.38,1.64-.66,2.93-.82l1.14-.14c.62-.08,1.06-.18,1.32-.29.48-.2.71-.52.71-.95,0-.52-.18-.88-.55-1.08-.36-.2-.89-.3-1.59-.3-.79,0-1.35.2-1.68.59-.24.29-.39.68-.47,1.17h-3.22c.07-1.12.38-2.04.94-2.75Zm2.48,8.98c.31.26.7.39,1.15.39.72,0,1.38-.21,1.98-.63.61-.42.93-1.19.95-2.31v-1.24c-.21.13-.42.24-.64.33-.21.08-.5.15-.88.22l-.75.14c-.7.12-1.21.28-1.51.46-.51.3-.77.78-.77,1.42,0,.57.16.98.48,1.23Zm19.2-9.77c1,.64,1.57,1.74,1.72,3.3h-3.34c-.05-.43-.17-.77-.36-1.02-.37-.45-.99-.68-1.88-.68-.73,0-1.25.11-1.56.34-.31.23-.46.49-.46.8,0,.38.16.66.49.83.33.18,1.49.49,3.48.93,1.33.31,2.32.79,2.99,1.42.66.64.99,1.44.99,2.4,0,1.27-.47,2.3-1.42,3.11-.94.8-2.39,1.2-4.36,1.2s-3.49-.42-4.45-1.27c-.95-.85-1.43-1.93-1.43-3.25h3.39c.07.59.22,1.02.46,1.27.41.45,1.18.67,2.3.67.66,0,1.18-.1,1.56-.29.39-.2.59-.49.59-.88s-.16-.66-.47-.86c-.31-.2-1.47-.53-3.48-1.01-1.45-.36-2.47-.81-3.06-1.35-.59-.53-.89-1.3-.89-2.3,0-1.18.46-2.19,1.38-3.04.93-.85,2.24-1.28,3.91-1.28s2.89.32,3.9.95Zm13.36,0c1,.64,1.57,1.74,1.72,3.3h-3.34c-.05-.43-.17-.77-.36-1.02-.37-.45-.99-.68-1.88-.68-.73,0-1.25.11-1.56.34-.3.23-.46.49-.46.8,0,.38.16.66.49.83.33.18,1.49.49,3.48.93,1.33.31,2.32.79,2.99,1.42.66.64.98,1.44.98,2.4,0,1.27-.47,2.3-1.42,3.11-.94.8-2.39,1.2-4.36,1.2s-3.49-.42-4.45-1.27c-.95-.85-1.43-1.93-1.43-3.25h3.39c.07.59.22,1.02.46,1.27.41.45,1.18.67,2.3.67.66,0,1.18-.1,1.56-.29.39-.2.59-.49.59-.88s-.16-.66-.47-.86c-.31-.2-1.47-.53-3.48-1.01-1.45-.36-2.46-.81-3.06-1.35-.59-.53-.89-1.3-.89-2.3,0-1.18.46-2.19,1.38-3.04.93-.85,2.23-1.28,3.91-1.28,1.59,0,2.89.32,3.9.95Z"/>
    </g>
  </g>
</svg>
